<?xml version="1.0" encoding="utf-8"?>
<!-- Generator: Adobe Illustrator 27.5.0, SVG Export Plug-In . SVG Version: 6.00 Build 0)  -->
<svg version="1.1" xmlns="http://www.w3.org/2000/svg" xmlns:xlink="http://www.w3.org/1999/xlink" x="0px" y="0px"
	 viewBox="0 0 750 500" style="enable-background:new 0 0 750 500;" xml:space="preserve">
<g id="BACKGROUND">
	<rect style="fill:#FFFFFF;" width="750" height="500"/>
</g>
<g id="OBJECTS">
	<g>
		<g>
			<g>
				<path style="fill:#74C8CF;" d="M72.008,134.058c24.267,5.714,50.116,7.527,73.884,0.003c23.768-7.525,45.106-25.594,51.9-49.581
					c4.385-15.484,2.967-33.221,12.497-46.19c12.043-16.389,35.81-17.727,56.045-15.677c20.234,2.049,42.401,5.524,59.492-5.501
					c6.722-4.336,11.791-10.4,16.184-17.111H0v154.673c8.221-11.843,18.887-22.055,32.698-25.025
					C45.709,126.849,59.055,131.007,72.008,134.058z"/>
			</g>
			<g>
				<path style="fill:#74C8CF;" d="M677.576,3.955c9.654,6.251,21.404,8.053,32.523,10.991C724.492,18.75,738.592,24.89,750,34.311
					V0h-77.592C674.029,1.429,675.736,2.764,677.576,3.955z"/>
			</g>
			<g>
				<path style="fill:#74C8CF;" d="M750,124.272c-21.013,19.229-49.006,34.427-52.261,61.887
					c-2.647,22.331,13.162,43.192,13.135,65.679c-0.029,24.741-19.076,46.337-19.622,71.072
					c-0.523,23.677,16.021,45.188,15.696,68.869c-0.438,31.925-31.905,55.795-63.285,61.683c-31.38,5.888-63.567-0.902-95.47-2.164
					c-50.013-1.977-100.507,10.033-144.274,34.316c-8.026,4.453-15.798,9.309-23.431,14.387H750V124.272z"/>
			</g>
		</g>
		<path style="fill:#74C8CF;" d="M723.9,52.95c22.266,7.422,17.467,45.609-11.645,35.904C688.784,81.031,700.61,45.187,723.9,52.95z
			"/>
		<path style="fill:#74C8CF;" d="M378.747,21.846c18.211,4.039,13.194,34.452-8.796,27.122
			C352.221,43.058,360.643,17.83,378.747,21.846z"/>
		<path style="fill:#74C8CF;" d="M30.317,167.026c10.99,3.663,8.622,22.512-5.748,17.722
			C12.985,180.886,18.822,163.194,30.317,167.026z"/>
		<path style="fill:#74C8CF;" d="M125.591,453.721c10.99,3.663,8.622,22.511-5.748,17.722
			C108.259,467.582,114.096,449.889,125.591,453.721z"/>
		<path style="fill:#74C8CF;" d="M582.745,420.067c10.99,3.663,8.621,22.512-5.748,17.722
			C565.413,433.927,571.25,416.236,582.745,420.067z"/>
		<path style="fill:#74C8CF;" d="M0,446.194V500h66.01C50.905,474.193,22.209,456.623,0,446.194z"/>
		<path style="fill:#74C8CF;" d="M543.064,19.308c9.975,1.76,8.355,15.423-2.732,12.997
			C530.588,30.174,533.09,17.548,543.064,19.308z"/>
		<path style="fill:#74C8CF;" d="M674.259,211.481c9.975,1.76,8.355,15.423-2.732,12.998
			C661.783,222.347,664.285,209.721,674.259,211.481z"/>
		<path style="fill:#74C8CF;" d="M18.317,310.975c4.167,0.735,3.491,6.444-1.141,5.43C13.104,315.514,14.149,310.239,18.317,310.975
			z"/>
	</g>
	<g>
		<g>
			<g>
				<path style="fill:#952315;" d="M56.696,413.351c0,0,7.905-11.263,20.874-6.935c15.471,5.162,24.109,42.239,1.948,53.29
					c0,0-4.759,0.771-7.774,0.009c0,0-5.339,6.237-12.647,5.623c-7.308-0.614-26.277-14.604-26.48-34.08
					C32.443,414.621,52.758,410.628,56.696,413.351z"/>
				<path style="fill:#DE5831;" d="M89.95,420.277c-2.745-6.762-7.172-12.124-12.38-13.861c-12.969-4.327-20.874,6.936-20.874,6.936
					c-3.938-2.723-24.253,1.27-24.079,17.906c0.087,8.312,3.596,15.62,8.153,21.32C57.757,455.978,87.838,456.735,89.95,420.277z"/>
				<path style="fill:none;stroke:#FFFFFF;stroke-miterlimit:10;" d="M42.987,417.543c0.818-0.408,1.723-0.744,2.722-0.994"/>
				<path style="fill:none;stroke:#FFFFFF;stroke-miterlimit:10;" d="M35.659,437.164c0,0-1.613-10.188,3.36-16.411
					c0.502-0.629,1.072-1.217,1.717-1.75"/>
				<path style="fill:#64AF5D;" d="M55.476,416.076c0,0-6.406-13.605-1.672-19.162l2.122,1.012c0,0-1.639,10.81,1.855,17.686
					C57.781,415.612,56.648,416.895,55.476,416.076z"/>
			</g>
			<path style="fill:#64AF5D;" d="M56.108,413.1c0,0-2.637-7.445,2.052-13.618c4.689-6.173,17.607-7.31,17.607-7.31
				s-2.501,13.562-6.642,18.251C64.985,415.112,56.108,413.1,56.108,413.1z"/>
			<path style="fill:none;stroke:#FFFFFF;stroke-miterlimit:10;" d="M66.881,394.907c0.823-0.229,1.692-0.379,2.604-0.424"/>
			<path style="fill:none;stroke:#FFFFFF;stroke-miterlimit:10;" d="M57.597,401.957c0,0,1.961-3.034,5.351-5.239"/>
		</g>
		<path style="fill:none;stroke:#343743;stroke-width:0.75;stroke-miterlimit:10;" d="M44.063,456.285
			c0,0,11.116,10.449,18.342,9.076c7.226-1.373,10.144-6.114,10.144-6.114s3.415,2.943,9.444-0.972
			c6.029-3.915,11.322-14.095,10.734-19.522"/>
		<path style="fill:none;stroke:#343743;stroke-width:0.75;stroke-miterlimit:10;" d="M56.202,410.163
			c0,0,5.982-11.165,13.068-12.934"/>
	</g>
	<g>
		<path style="fill:#805021;" d="M660.354,428.799c0,0-112.876-37.263-116.139-42.431c-3.264-5.168-1.632-15.775,8.704-17.951
			c10.335-2.176,110.428,50.862,110.428,50.862s8.16-3.536,11.696,1.904c3.536,5.44-0.816,14.959-7.888,14.143
			C660.082,434.511,660.354,428.799,660.354,428.799z"/>
		<path style="fill:none;stroke:#FFFFFF;stroke-miterlimit:10;" d="M561.314,373.025c0.485,0.165,0.998,0.343,1.539,0.534
			c10.254,3.623,30.824,12.082,70.656,31.824"/>
		<path style="fill:none;stroke:#FFFFFF;stroke-miterlimit:10;" d="M553.406,370.848c0,0,0.929,0.039,3.858,0.888"/>
		<path style="fill:#F3D43F;" d="M635.766,404.972c-1.222,5.61-3.653,10.563-5.484,13.742c13.363,4.534,24.119,8.112,28.245,9.48
			c1.184-3.335,2.106-6.994,2.762-10C657.267,416.077,647.687,411.058,635.766,404.972z"/>
		<path style="fill:none;stroke:#FFFFFF;stroke-miterlimit:10;" d="M674.751,426.661c-0.065,0.757-0.208,1.599-0.447,2.534"/>
		<path style="fill:none;stroke:#FFFFFF;stroke-miterlimit:10;" d="M668.174,419.95c0,0,4.766-0.548,6.208,3.291"/>
		<path style="fill:none;stroke:#343743;stroke-width:0.75;stroke-miterlimit:10;" d="M635.766,404.972
			c0,0-2.26,11.858-5.484,13.742"/>
		<path style="fill:none;stroke:#343743;stroke-width:0.75;stroke-miterlimit:10;" d="M558.732,393.42l101.622,35.379
			c0,0,1.231,7.166,8.217,6.567"/>
	</g>
	<g>
		<g>
			<g>
				<path style="fill:#EEC141;" d="M255.833,404.483c0,0,20.048-7.778,26.615,7.684c6.547,15.414-28.302,21.829-27.901,25.959
					c0.401,4.129,8.549,4.841,4.358,7.698c-4.192,2.857-10.065-0.444-10.894-6.418c-1.65-11.893,30.969-15.836,27.375-25.177
					c-2.789-7.249-18.658-5.17-18.658-5.17L255.833,404.483z"/>
				<path style="fill:#EEC141;" d="M203.086,388.117c0,0-15.465-14.941-27.513-3.234c-12.01,11.671,17.628,31.093,15.657,34.744
					c-1.97,3.651-9.757,1.149-7.001,5.407c2.756,4.258,9.45,3.492,12.53-1.694c6.131-10.324-22.409-26.602-15.476-33.82
					c5.381-5.601,19.203,2.467,19.203,2.467L203.086,388.117z"/>
				<path style="fill:none;stroke:#FFFFFF;stroke-miterlimit:10;" d="M189.802,382.391c0.817,0.174,1.662,0.423,2.533,0.761"/>
				<path style="fill:none;stroke:#FFFFFF;stroke-miterlimit:10;" d="M176.42,386.314c0,0,3.94-4.201,10.212-4.25"/>
				<path style="fill:#F3D43F;" d="M195.612,426.481c3.545,8.4,21.195,9.812,20.099,15.999c-1.096,6.187-3.396,15.737-3.396,15.737
					s-23.011,3.296-20.41,6.18c2.601,2.884,43.783,13.934,44.419,11.637c0.636-2.296-14.306-12.798-13.925-16.402
					c0.38-3.604,1.536-13.367,3.033-15.424c1.497-2.058,24.51-2.983,26.485-6.763c1.975-3.78,9.942-35.88,8.043-37.952
					c-1.899-2.072-51.972-16.564-55.973-15.509C199.986,385.04,192.067,418.08,195.612,426.481z"/>
				<path style="fill:none;stroke:#FFFFFF;stroke-miterlimit:10;" d="M216.117,448.038c-1.059,4.705-2.393,10.789-2.393,10.789"/>
				<path style="fill:none;stroke:#FFFFFF;stroke-miterlimit:10;" d="M217.386,442.657c-0.034,0.051-0.197,0.707-0.435,1.727"/>
				<path style="fill:none;stroke:#FFFFFF;stroke-miterlimit:10;" d="M248.377,397.799c1.356,0.426,2.685,0.857,3.974,1.292"/>
				<path style="fill:none;stroke:#FFFFFF;stroke-miterlimit:10;" d="M205.84,386.958c0,0,18.182,3.789,35.195,8.646"/>
				<path style="fill:#EEC141;" d="M185.79,466.707c0,0-0.256-4.405,2.29-4.596c2.546-0.191,50.107,12.463,50.34,14.32
					c0.233,1.858-1.083,5.4-1.083,5.4S184.807,467.556,185.79,466.707z"/>
			</g>
			<path style="fill:none;stroke:#EEC141;stroke-width:5;stroke-linejoin:round;stroke-miterlimit:10;" d="M217.603,405.025
				c0,0,8.925,0.853,14.012-3.303l-7.572,29.257"/>
		</g>
		<path style="fill:none;stroke:#FFFFFF;stroke-miterlimit:10;" d="M273.522,405.438c2.663,1.039,5.59,3.074,7.228,7.051"/>
		<path style="fill:none;stroke:#FFFFFF;stroke-miterlimit:10;" d="M267.752,404.365c0,0,1.012-0.045,2.497,0.192"/>
		<line style="fill:none;stroke:#FFFFFF;stroke-miterlimit:10;" x1="188.313" y1="463.141" x2="211.821" y2="469.408"/>
		<path style="fill:none;stroke:#343743;stroke-width:0.75;stroke-miterlimit:10;" d="M203.987,383.985
			c0,0-11.042,17.734-9.022,39.979"/>
		<path style="fill:none;stroke:#343743;stroke-width:0.75;stroke-miterlimit:10;" d="M185.052,401.169
			c0,0-9.367-10.009-1.908-12.803c6.696-2.509,14.333,1.926,14.333,1.926"/>
		<path style="fill:none;stroke:#343743;stroke-width:0.75;stroke-miterlimit:10;" d="M261.609,408.88
			c0,0,12.267-0.086,13.777,5.348c1.511,5.434-13.176,11.185-13.176,11.185"/>
		<path style="fill:none;stroke:#343743;stroke-width:0.75;stroke-miterlimit:10;" d="M228.248,443.143
			c0,0,19.675-1.621,23.276-6.234c3.601-4.613,7.364-25.1,7.364-25.1"/>
		<path style="fill:none;stroke:#343743;stroke-width:0.75;stroke-miterlimit:10;" d="M186.487,463.304c0,0-1.276,2.814-0.697,3.404
			c0.921,0.938,51.547,15.125,51.547,15.125l1.083-5.4"/>
	</g>
	<g>
		<g>
			<g>
				<g>
					<path style="fill:#599DD3;" d="M51.24,218.648c-1.592-0.228-31.488,12.047-33.084,12.894s-7.561,12.866-6.788,14.276
						c0.773,1.41,36.999,35.978,36.999,35.978l16.841-7.316c0,0-1.511-47.678-1.43-49.641
						C63.858,222.875,52.832,218.876,51.24,218.648z M52.709,267.845L29.02,240.708l20.921-8.431L52.709,267.845z"/>
					<path style="fill:#4070B2;" d="M52.709,267.845L29.02,240.708l20.921-8.431L52.709,267.845l-3.781-48.576
						c-3.479,1.169-10.243,3.815-16.55,6.355c-0.015,0.006-0.029,0.012-0.044,0.018c-1.371,0.552-2.72,1.1-4.009,1.625
						c-0.056,0.023-0.113,0.046-0.169,0.069c-0.912,0.373-1.793,0.734-2.628,1.078c-0.058,0.024-0.118,0.048-0.176,0.072
						c-0.274,0.113-0.543,0.224-0.806,0.333c-0.015,0.006-0.03,0.012-0.045,0.018c-0.837,0.346-1.617,0.67-2.325,0.967
						c-0.019,0.008-0.039,0.016-0.058,0.024c-0.699,0.293-1.326,0.557-1.866,0.787c-0.011,0.005-0.022,0.01-0.033,0.014
						L52.709,267.845z"/>
					
						<line style="fill:none;stroke:#343743;stroke-width:0.75;stroke-miterlimit:10;" x1="49.941" y1="232.277" x2="29.02" y2="240.708"/>
				</g>
				<path style="fill:none;stroke:#EEC141;stroke-width:2;stroke-miterlimit:10;" d="M58.908,290.834c0,0-3.127-3.419-0.126-5.789
					c3.001-2.37,4.957,1.567,5.445,3.025"/>
				
					<line style="fill:none;stroke:#EEC141;stroke-width:2;stroke-miterlimit:10;" x1="60.124" y1="286.24" x2="57.476" y2="281.491"/>
				<path style="fill:#F3D43F;" d="M49.057,285.672c0,0-3.104-2.418-0.801-4.188l18.213-7.645c0,0,2.883,1.862,1.06,4.3
					L49.057,285.672z"/>
				<line style="fill:none;stroke:#FFFFFF;stroke-miterlimit:10;" x1="48.672" y1="283.374" x2="60.15" y2="278.628"/>
				<path style="fill:#F3D43F;" d="M54.247,310.813c0,0-8.833-14.823,7.103-22.899c14.944-7.573,22.513,7.775,23.017,12.075
					c0.504,4.3,1.5,12.66-11.223,17.541C60.421,322.411,54.247,310.813,54.247,310.813z"/>
				<path style="fill:none;stroke:#FFFFFF;stroke-miterlimit:10;" d="M54.36,296.287c0.288-0.655,0.634-1.322,1.046-1.996"/>
				<path style="fill:none;stroke:#FFFFFF;stroke-miterlimit:10;" d="M56.874,311.738c0,0-4.697-5.033-3.559-11.972
					c0.078-0.478,0.184-0.964,0.321-1.459"/>
				<path style="fill:none;stroke:#EEC141;stroke-width:2;stroke-miterlimit:10;" d="M62.354,291.745
					c10.274-6.668,25.982,8.924,13.234,18.881C62.839,320.583,47.74,301.23,62.354,291.745z"/>
				<path style="fill:none;stroke:#EEC141;stroke-width:3;stroke-linejoin:round;stroke-miterlimit:10;" d="M63.284,300.107
					c0,0,3.242-6.214,6.209-2.579c2.261,2.77-1.816,9.787-1.816,9.787l7.731-3.801"/>
			</g>
			
				<line style="fill:none;stroke:#343743;stroke-width:0.75;stroke-miterlimit:10;" x1="53.555" y1="279.401" x2="48.929" y2="219.268"/>
			
				<line style="fill:none;stroke:#343743;stroke-width:0.75;stroke-miterlimit:10;" x1="48.255" y1="281.484" x2="66.468" y2="273.839"/>
			<path style="fill:none;stroke:#343743;stroke-width:0.75;stroke-miterlimit:10;" d="M71.475,318.173
				c0,0,12.753-2.686,13.111-15.348c0.384-13.612-11.825-17.492-16.377-16.758"/>
		</g>
		<g>
			<g>
				
					<line style="fill:none;stroke:#EEC141;stroke-width:2;stroke-miterlimit:10;" x1="643.499" y1="86.159" x2="644.846" y2="81.32"/>
				<path style="fill:none;stroke:#EEC141;stroke-width:2;stroke-miterlimit:10;" d="M639.025,87.614
					c0.799-1.898,4.514-3.577,6.399-0.407c1.885,3.17-0.061,5.897-3.356,5.569C639.565,92.526,638.009,90.026,639.025,87.614z"/>
				<g>
					<path style="fill:#599DD3;" d="M678.216,28.321c-1.099-1.174-32.099-10.308-33.874-10.646
						c-1.775-0.338-13.949,5.304-14.229,6.887c-0.279,1.584,6.344,51.216,6.344,51.216l17.714,4.832
						c0,0,28.658-38.134,29.949-39.615C685.413,39.514,679.316,29.495,678.216,28.321z M648.576,67.614l-1.496-35.991l21.595,6.516
						L648.576,67.614z"/>
					<g>
						<path style="fill:#DE5831;" d="M683.884,38.519c-0.737-2.091-2.319-5.002-3.652-7.2l-31.541,47.724l3.333,1.016
							L683.884,38.519z"/>
						<path style="fill:#DE5831;" d="M634.835,21.308l4.877,55.358l4.932,1.345l-4.985-58.939
							C638.096,19.718,636.386,20.509,634.835,21.308z"/>
					</g>
					<path style="fill:#4070B2;" d="M648.576,67.614l-1.496-35.991l21.595,6.516L648.576,67.614l27.45-40.255
						c-3.445-1.265-10.376-3.434-16.886-5.4c-0.015-0.005-0.03-0.009-0.045-0.014c-1.415-0.427-2.81-0.845-4.144-1.241
						c-0.058-0.017-0.116-0.035-0.175-0.052c-0.945-0.281-1.857-0.55-2.725-0.804c-0.06-0.018-0.122-0.036-0.182-0.054
						c-0.284-0.083-0.564-0.165-0.837-0.245c-0.016-0.005-0.031-0.009-0.046-0.013c-0.869-0.254-1.68-0.489-2.418-0.701
						c-0.02-0.006-0.04-0.012-0.06-0.017c-0.729-0.209-1.383-0.395-1.948-0.554c-0.011-0.003-0.023-0.007-0.035-0.01L648.576,67.614
						z"/>
				</g>
			</g>
			<path style="fill:#F3D43F;" d="M633.665,99.394c0,0,6.506-8.856,8.53-7.76c2.023,1.096,1.544,11.336,1.544,11.336
				s10.571,2.47,10.139,4.383c-0.432,1.913-9.447,7.162-9.447,7.162s0.715,8.405-1.784,9.366c-2.5,0.961-9.32-8.066-9.32-8.066
				s-9.667,3.789-11.38,1.687c-1.713-2.102,3.986-10.891,3.986-10.891s-7.252-7.114-4.917-9.07
				C623.348,95.586,633.665,99.394,633.665,99.394z"/>
			
				<line style="fill:none;stroke:#343743;stroke-width:0.75;stroke-miterlimit:10;" x1="646.559" y1="18.265" x2="648.528" y2="79.243"/>
			<path style="fill:#F3D43F;" d="M634.57,79.233c0,0-0.908-3.828,1.996-3.768l18.99,5.434c0,0,1.084,3.256-1.864,4.018
				L634.57,79.233z"/>
			<path style="fill:none;stroke:#FFFFFF;stroke-miterlimit:10;" d="M635.24,78.683c0,0-0.006-1.844,1.581-2.478"/>
			<path style="fill:none;stroke:#FFFFFF;stroke-miterlimit:10;" d="M625.425,98.546c2.307,0.33,5.389,0.889,7.08,1.685"/>
			<path style="fill:none;stroke:#FFFFFF;stroke-miterlimit:10;" d="M622.453,98.183c0,0,0.275,0.026,0.738,0.077
				c0.166,0.019,0.356,0.041,0.567,0.066"/>
			<path style="fill:none;stroke:#FFFFFF;stroke-miterlimit:10;" d="M637.28,97.133c0,0,2.801-3.481,3.666-4.003"/>
			<path style="fill:#EEC141;" d="M625.006,108.124c-1.536,2.606-4.329,7.823-3.06,9.38c1.713,2.102,11.38-1.687,11.38-1.687
				s6.82,9.027,9.319,8.066c2.5-0.961,1.784-9.366,1.784-9.366s2.589-1.51,5.059-3.204
				C640.1,116.232,631.026,112.34,625.006,108.124z"/>
			<path style="fill:none;stroke:#FFFFFF;stroke-width:0.75;stroke-miterlimit:10;" d="M642.686,85.345
				c0.205,0.014,0.42,0.042,0.644,0.086"/>
			<path style="fill:none;stroke:#FFFFFF;stroke-width:0.75;stroke-miterlimit:10;" d="M638.658,88.026c0,0,0.706-2.148,2.871-2.606
				c0.132-0.028,0.27-0.05,0.414-0.064"/>
			<path style="fill:none;stroke:#343743;stroke-width:0.75;stroke-miterlimit:10;" d="M620.728,99.823c0,0,3.13,5.561,5.203,6.79
				c0,0-5.606,8.785-3.985,10.891c1.621,2.106,11.38-1.687,11.38-1.687"/>
			<path style="fill:none;stroke:#343743;stroke-width:0.75;stroke-miterlimit:10;" d="M653.877,107.354c0,0-6.46,6.57-9.447,7.162"
				/>
			<path style="fill:none;stroke:#343743;stroke-width:0.75;stroke-miterlimit:10;" d="M639.919,88.215c0,0,3.137-3.743,4.952,0.488
				"/>
			
				<line style="fill:none;stroke:#343743;stroke-width:0.75;stroke-miterlimit:10;" x1="634.57" y1="79.233" x2="653.692" y2="84.917"/>
			
				<line style="fill:none;stroke:#343743;stroke-width:0.75;stroke-miterlimit:10;" x1="675.481" y1="28.129" x2="660.742" y2="49.811"/>
		</g>
		<g>
			
				<line style="fill:none;stroke:#EEC141;stroke-width:2;stroke-miterlimit:10;" x1="371.425" y1="453.986" x2="373.869" y2="449.129"/>
			<g>
				<g>
					<path style="fill:#DE5831;" d="M417.357,404.059c-0.849-1.366-29.469-16.378-31.143-17.056
						c-1.674-0.678-14.716,2.477-15.3,3.976c-0.583,1.499-3.778,51.469-3.778,51.469l16.43,8.198c0,0,35.552-31.804,37.108-33.004
						C422.229,416.442,418.206,405.425,417.357,404.059z M380.614,436.808l5.561-35.591l19.907,10.607L380.614,436.808z"/>
					<path style="fill:none;stroke:#FFFFFF;stroke-miterlimit:10;" d="M384.777,388.219c0,0-10.047,1.554-11.911,2.693"/>
					<path style="fill:#952315;" d="M380.614,436.808l5.561-35.591l19.907,10.607L380.614,436.808l34.782-34.12
						c-3.132-1.914-9.506-5.394-15.507-8.593c-0.014-0.007-0.028-0.015-0.042-0.022c-1.305-0.695-2.591-1.377-3.822-2.026
						c-0.054-0.028-0.107-0.057-0.161-0.085c-0.872-0.46-1.714-0.902-2.515-1.321c-0.056-0.029-0.113-0.059-0.168-0.088
						c-0.262-0.137-0.521-0.272-0.773-0.403c-0.015-0.008-0.029-0.015-0.043-0.022c-0.803-0.418-1.553-0.807-2.235-1.159
						c-0.019-0.01-0.037-0.019-0.056-0.029c-0.674-0.348-1.279-0.658-1.802-0.923c-0.01-0.005-0.022-0.011-0.032-0.016
						L380.614,436.808z"/>
					<polyline style="fill:none;stroke:#343743;stroke-width:0.75;stroke-miterlimit:10;" points="386.175,401.217 406.082,411.824 
						415.396,402.687 					"/>
				</g>
				<path style="fill:#F3D43F;" d="M364.609,445.469c0,0-0.143-3.932,2.694-3.306l17.563,9.038c0,0,0.427,3.405-2.613,3.576
					L364.609,445.469z"/>
			</g>
			
				<line style="fill:none;stroke:#343743;stroke-width:0.75;stroke-miterlimit:10;" x1="388.273" y1="388.015" x2="379.218" y2="448.331"/>
			<g>
				<path style="fill:none;stroke:#EEC141;stroke-width:2;stroke-miterlimit:10;" d="M366.941,455.559c0,0,1.074-4.507,4.72-3.353
					c3.646,1.154,1.486,4.982,0.552,6.204"/>
				<path style="fill:#C6F2E1;" d="M347.79,462.915c0,0,7.31-15.63,22.938-6.974c14.655,8.118,6.202,22.996,2.926,25.827
					c-3.276,2.831-9.636,8.348-20.816,0.558C341.656,474.535,347.79,462.915,347.79,462.915z"/>
				<path style="fill:none;stroke:#343743;stroke-width:0.75;stroke-miterlimit:10;" d="M379.03,468.303
					c-0.003-0.559-0.032-1.084-0.082-1.565c-0.105-1.01-0.307-1.825-0.572-2.356"/>
				<path style="fill:none;stroke:#343743;stroke-width:0.75;stroke-miterlimit:10;" d="M348.278,477.773
					c0,0,7.933,11.155,19.181,8.083c7.877-2.152,10.862-9.607,11.456-15.28"/>
				<path style="fill:none;stroke:#A2E0B9;stroke-width:2;stroke-miterlimit:10;" d="M368.121,458.922
					c11.286,4.76,7.198,26.512-8.198,21.55C344.526,475.51,352.067,452.151,368.121,458.922z"/>
				<path style="fill:none;stroke:#8AD7C3;stroke-width:3;stroke-linejoin:round;stroke-miterlimit:10;" d="M362.585,464.287
					c0,0,4.182-0.245,4.514,3.077c0.298,2.977-3.652,2.386-5.313,1.761c0,0,4.976,2.054,2.346,4.902
					c-2.341,2.535-6.135-1.591-6.135-1.591"/>
			</g>
			<path style="fill:none;stroke:#FFFFFF;stroke-miterlimit:10;" d="M359.26,454.9c0.741-0.182,1.531-0.32,2.372-0.405"/>
			<path style="fill:none;stroke:#FFFFFF;stroke-miterlimit:10;" d="M348.659,464.827c0,0,1.549-5.778,7.364-8.733"/>
			<line style="fill:none;stroke:#FFFFFF;stroke-miterlimit:10;" x1="366.059" y1="444.635" x2="381.494" y2="452.352"/>
			
				<line style="fill:none;stroke:#343743;stroke-width:0.75;stroke-miterlimit:10;" x1="395.053" y1="422.544" x2="410.898" y2="407.202"/>
			<polyline style="fill:none;stroke:#343743;stroke-width:0.75;stroke-miterlimit:10;" points="367.303,442.163 383.566,450.647 
				409.018,427.844 			"/>
		</g>
	</g>
	<g>
		<g>
			<g>
				<path style="fill:#C6F2E1;" d="M435.17,60.551c-5.026-11.092-4.808-23.983,0.896-34.742
					c4.997-9.427,16.113-20.526,36.532-18.402c37.878,3.941,39.411,43.79,21.895,62.4C479.812,85.407,446.671,85.931,435.17,60.551z
					"/>
				<path style="fill:none;stroke:#4070B2;stroke-miterlimit:10;" d="M441.648,19.634c0,0,14.485-12.674,29.875-10.864
					c15.39,1.811,28.245,18.106,29.875,32.229c1.629,14.123-7.242,32.41-25.167,36.574"/>
				
					<line style="fill:none;stroke:#4070B2;stroke-width:2;stroke-miterlimit:10;" x1="476.324" y1="14.414" x2="472.469" y2="34.609"/>
				<g>
					
						<line style="fill:none;stroke:#4070B2;stroke-width:2;stroke-miterlimit:10;" x1="443.829" y1="30.386" x2="458.332" y2="39.566"/>
				</g>
				<path style="fill:#4070B2;" d="M457.026,38.39c1.03-1.276,13.453-6.88,15.67-6.145c2.217,0.735,10.697,9.158,10.772,11.677
					c0.075,2.519-7.362,14.781-9.07,15.158c-1.709,0.377-17.829-3.148-18.488-3.855S455.996,39.667,457.026,38.39z"/>
				<path style="fill:#4070B2;" d="M485.287,76.547c-3.172-2.787-9.81-6.514-11.624-6.647c-2.329-0.171-13.006,8.299-13.693,9.788
					c-0.033,0.071-0.055,0.18-0.072,0.308C468.551,81.679,477.736,80.333,485.287,76.547z"/>
				<path style="fill:#4070B2;" d="M504.605,34.49c-1.853-0.241-3.347-0.302-3.987-0.066c-2.365,0.871-7.658,11.588-7.65,13.924
					c0.005,1.751,5.212,7.81,8.466,10.974C504.916,51.645,506.162,42.746,504.605,34.49z"/>
				<path style="fill:#4070B2;" d="M472.598,7.408c-2.787-0.29-5.395-0.326-7.844-0.161c3.661,3.755,9.524,9.266,10.651,9.667
					c1.166,0.415,7.91-2.691,12.211-5.315C483.435,9.485,478.452,8.017,472.598,7.408z"/>
				<path style="fill:#4070B2;" d="M431.863,39.419c2.384-1.352,12.526-7.03,13.251-8.482c0.489-0.979-0.243-9.906-2.086-14.37
					c-3.044,2.915-5.331,6.166-6.962,9.242C433.797,30.09,432.41,34.71,431.863,39.419z"/>
				<path style="fill:#4070B2;" d="M445.153,60.325c-0.52-1.062-6.932-3.383-11.786-4.571c0.5,1.626,1.093,3.231,1.803,4.797
					c2.637,5.819,6.419,10.261,10.848,13.487C445.996,68.804,445.658,61.356,445.153,60.325z"/>
			</g>
			
				<line style="fill:none;stroke:#4070B2;stroke-width:2;stroke-miterlimit:10;" x1="481.464" y1="43.788" x2="496.518" y2="47.644"/>
			<line style="fill:none;stroke:#4070B2;stroke-width:2;stroke-miterlimit:10;" x1="442.544" y1="61.596" x2="458.7" y2="52.784"/>
			
				<line style="fill:none;stroke:#4070B2;stroke-width:2;stroke-miterlimit:10;" x1="473.387" y1="57.006" x2="473.203" y2="73.529"/>
			<path style="fill:none;stroke:#343743;stroke-width:0.75;stroke-miterlimit:10;" d="M439.976,19.634
				c-5.405,6.767-10.645,18.052-7.164,34.743c6.315,30.282,41.659,28.84,52.475,22.17"/>
			<path style="fill:none;stroke:#343743;stroke-width:0.75;stroke-miterlimit:10;" d="M448.886,11.61c0,0-1.756,0.979-4.146,3.054"
				/>
			<path style="fill:none;stroke:#FFFFFF;stroke-miterlimit:10;" d="M489.788,14.767c0,0,10.62,7.463,12.199,16.505"/>
		</g>
		<g>
			<g>
				<path style="fill:#DE5831;" d="M259.175,44.06c11.946,32.063-24.355,40.987-32.049,40.017
					c-7.694-0.97-25.641-6.857-26.503-34.964C199.761,21.006,246.13,9.047,259.175,44.06z"/>
				<path style="fill:none;stroke:#343743;stroke-miterlimit:10;" d="M258.717,42.974c0,0-15.974-8.843-31.675-3.321
					c-17.846,6.277-24.799,23.095-24.799,23.095"/>
				<path style="fill:none;stroke:#343743;stroke-miterlimit:10;" d="M204.989,35.331c0,0,13.41-8.849,22.092,0.631
					c8.682,9.48-14.187,34.737-10.437,44.448"/>
				<path style="fill:none;stroke:#343743;stroke-miterlimit:10;" d="M223.379,23.06c0,0,25.172,20.726,12.301,59.68"/>
				<path style="fill:none;stroke:#343743;stroke-miterlimit:10;" d="M244.966,25.995c0,0-8.034,5.667-3.54,15.116
					c4.493,9.449,17.725,16.661,13.582,31.487"/>
			</g>
			<path style="fill:none;stroke:#343743;stroke-width:0.75;stroke-miterlimit:10;" d="M261.772,56.129
				c0,0-1.831-32.101-29.016-33.439c-30.237-1.488-33.893,24.203-31.324,32.799"/>
			<path style="fill:none;stroke:#FFFFFF;stroke-miterlimit:10;" d="M252.981,73.948c-8.018,6.933-22.72,15.406-39.501,4.817"/>
			<path style="fill:none;stroke:#FFFFFF;stroke-miterlimit:10;" d="M259.421,67.275c0,0-0.73,0.975-2.086,2.45"/>
		</g>
		<g>
			<g>
				<path style="fill:#DE5831;" d="M693.516,244.143c25.011-13.865,48.119-3.534,50.838,1.359
					c2.719,4.893,7.889,35.248-24.739,50.838c-24.467,11.69-46.76,0.816-49.75-1.359
					C666.874,292.806,668.505,258.008,693.516,244.143z"/>
				<path style="fill:none;stroke:#343743;stroke-miterlimit:10;" d="M744.354,245.502c-47.765,0.817-74.489,49.478-74.489,49.478"
					/>
				<g>
					<path style="fill:#FCFFFD;" d="M742.539,274.603c-2.545-10.954-7.648-25.63-17.769-37.137c-0.526-0.055-1.06-0.102-1.601-0.141
						c-0.859-0.062-1.736-0.102-2.63-0.119c-1.345-0.025-2.728,0.003-4.145,0.093c6.305,6.995,16.078,20.977,21.677,44.634
						C739.913,279.527,741.383,277.063,742.539,274.603z"/>
					<path style="fill:#FCFFFD;" d="M687.905,301.048c2.508,0.371,5.201,0.605,8.048,0.617
						c-5.863-6.857-15.415-19.911-20.963-37.454c-1.295,2.612-2.354,5.253-3.205,7.835
						C675.526,280.997,681.358,293.289,687.905,301.048z"/>
				</g>
				<g>
					<path style="fill:none;stroke:#FCFFFD;stroke-width:3;stroke-linecap:round;stroke-linejoin:round;stroke-miterlimit:10;" d="
						M686.158,274.173c0,0,18.321-21.296,34.185-23.602"/>
					
						<line style="fill:none;stroke:#FCFFFD;stroke-width:3;stroke-linecap:round;stroke-linejoin:round;stroke-miterlimit:10;" x1="685.505" y1="268.208" x2="691.663" y2="274.422"/>
					
						<line style="fill:none;stroke:#FCFFFD;stroke-width:3;stroke-linecap:round;stroke-linejoin:round;stroke-miterlimit:10;" x1="688.857" y1="264.593" x2="694.745" y2="271.064"/>
					
						<line style="fill:none;stroke:#FCFFFD;stroke-width:3;stroke-linecap:round;stroke-linejoin:round;stroke-miterlimit:10;" x1="692.392" y1="261.363" x2="698.146" y2="267.954"/>
					
						<line style="fill:none;stroke:#FCFFFD;stroke-width:3;stroke-linecap:round;stroke-linejoin:round;stroke-miterlimit:10;" x1="695.765" y1="258.142" x2="701.388" y2="264.844"/>
					
						<line style="fill:none;stroke:#FCFFFD;stroke-width:3;stroke-linecap:round;stroke-linejoin:round;stroke-miterlimit:10;" x1="699.949" y1="254.835" x2="705.271" y2="261.779"/>
					
						<line style="fill:none;stroke:#FCFFFD;stroke-width:3;stroke-linecap:round;stroke-linejoin:round;stroke-miterlimit:10;" x1="704.865" y1="251.794" x2="710.209" y2="258.721"/>
					
						<line style="fill:none;stroke:#FCFFFD;stroke-width:3;stroke-linecap:round;stroke-linejoin:round;stroke-miterlimit:10;" x1="709.884" y1="248.593" x2="715.041" y2="255.661"/>
					
						<line style="fill:none;stroke:#FCFFFD;stroke-width:3;stroke-linecap:round;stroke-linejoin:round;stroke-miterlimit:10;" x1="715.169" y1="246.856" x2="720.172" y2="254.033"/>
				</g>
			</g>
			<path style="fill:none;stroke:#FFFFFF;stroke-miterlimit:10;" d="M726.952,238.534c2.114,0.335,2.479,0.974,4.749,1.518"/>
			<path style="fill:none;stroke:#FFFFFF;stroke-miterlimit:10;" d="M668.986,287.14c0,0,3.633-50.208,48.444-49.464
				c1.213,0.02,2.456,0.078,3.73,0.174"/>
			<path style="fill:none;stroke:#343743;stroke-width:0.75;stroke-miterlimit:10;" d="M675.886,298.506
				c0,0,50.944,16.846,68.602-28.821"/>
		</g>
		<g>
			<g>
				<path style="fill:#FCFFFD;" d="M77.691,9.713c46.306-4.58,63.809,64.66,14.757,80.655C33.929,109.45,14.546,15.958,77.691,9.713
					z"/>
				<path style="fill:#DE5831;" d="M121.711,48.571c-0.606-8.527-3.684-16.886-8.823-23.672
					c2.843,23.49-25.497,38.812-25.497,38.812l5.144,10.133C108.895,69.269,117.476,59.756,121.711,48.571z"/>
				<path style="fill:#C6F2E1;" d="M120.953,60.25c-29.858,34.411-64.085,14.187-81.457-0.481
					c4.36,21.669,23.796,40.107,52.952,30.6C109.27,84.882,118.263,73.134,120.953,60.25z"/>
				<path style="fill:#F3D43F;" d="M88.424,91.502c-6.311-3.538-21.042-15.161-26.383-48.316L50.365,45.91
					c0,0-2.311,30.126,12.051,44.001C69.677,93.072,78.426,93.962,88.424,91.502z"/>
				<path style="fill:#4070B2;" d="M99.47,26.861c0,0-14.676-15.475-44.138-9.545c-5.621,3.825-9.75,8.787-12.502,14.349
					c6.4-2.159,18.359-5.518,28.78-4.567c12.592,1.149,19.205,4.624,22.525,7.232L99.47,26.861z"/>
				<path style="fill:none;stroke:#343743;stroke-miterlimit:10;" d="M38.442,52.464c0,0,18.964-16.194,42.616-7.458
					c0,0,22.8-13.424,20.669-30.045"/>
				<path style="fill:none;stroke:#343743;stroke-miterlimit:10;" d="M43.106,31.185c1.012-0.401,29.192-10.758,50.524,2.954"/>
				<path style="fill:none;stroke:#343743;stroke-miterlimit:10;" d="M55.276,16.879c0,0,29.618-5.327,44.108,9.802"/>
				<path style="fill:none;stroke:#343743;stroke-miterlimit:10;" d="M81.059,45.006c0,0,6.393,36.863,25.996,37.929"/>
				<path style="fill:none;stroke:#343743;stroke-miterlimit:10;" d="M61.881,43.301c0,0,4.901,42.403,27.914,47.73"/>
				<path style="fill:none;stroke:#343743;stroke-miterlimit:10;" d="M50.236,45.91c0,0-0.5,37.237,14.416,44.908"/>
				<path style="fill:none;stroke:#343743;stroke-miterlimit:10;" d="M86.173,64.184c0,0,29.405-16.62,27.274-38.142"/>
				<path style="fill:none;stroke:#343743;stroke-miterlimit:10;" d="M92.352,73.772c0,0,28.786-7.311,28.786-28.193"/>
			</g>
			<path style="fill:none;stroke:#343743;stroke-width:0.75;stroke-miterlimit:10;" d="M44.012,73.218
				c0,0,16.208,32.272,54.395,14.505c37.673-17.527,18.535-56.41,18.535-56.41"/>
		</g>
		<g>
			<g>
				<path style="fill:#FCFFFD;" d="M500.551,436.677c21.445-1.214,28.53,22.68,18.331,35.182
					c-8.548,10.479-23.866,8.791-33.064,2.467C472.87,465.425,478.937,437.901,500.551,436.677z"/>
				<path style="fill:#C6F2E1;" d="M518.882,471.859c1.965-2.409,3.282-5.242,3.984-8.236c-19.776,22.032-36.181,4.371-43.587-6.757
					c-0.918,6.887,1.173,13.772,6.538,17.461C495.016,480.65,510.334,482.338,518.882,471.859z"/>
				<path style="fill:none;stroke:#343743;stroke-miterlimit:10;" d="M500.543,479.543c0,0-2.518-14.354,2.65-22.969
					c6.294-10.491,16.122-11.263,16.122-11.263"/>
				<path style="fill:none;stroke:#DE5831;stroke-linecap:round;stroke-linejoin:round;stroke-miterlimit:10;" d="M498.023,476.06
					c0,0,2.302,1.744,2.365,1.491c0.063-0.254,1.931-1.866,1.931-1.866"/>
				<path style="fill:none;stroke:#DE5831;stroke-linecap:round;stroke-linejoin:round;stroke-miterlimit:10;" d="M497.969,473.536
					c0,0,2.302,1.744,2.365,1.49c0.063-0.254,1.931-1.866,1.931-1.866"/>
				<path style="fill:none;stroke:#DE5831;stroke-linecap:round;stroke-linejoin:round;stroke-miterlimit:10;" d="M497.828,470.679
					c0,0,2.102,1.98,2.193,1.735c0.09-0.245,2.119-1.649,2.119-1.649"/>
				<path style="fill:none;stroke:#DE5831;stroke-linecap:round;stroke-linejoin:round;stroke-miterlimit:10;" d="M498.072,468.242
					c0,0,2.031,2.054,2.13,1.812c0.099-0.242,2.177-1.573,2.177-1.573"/>
				<path style="fill:none;stroke:#DE5831;stroke-linecap:round;stroke-linejoin:round;stroke-miterlimit:10;" d="M498.215,465.224
					c0,0,1.721,2.319,1.853,2.093c0.132-0.226,2.376-1.251,2.376-1.251"/>
				<path style="fill:none;stroke:#DE5831;stroke-linecap:round;stroke-linejoin:round;stroke-miterlimit:10;" d="M498.882,462.474
					c0,0,1.591,2.6,1.723,2.374c0.132-0.226,2.305-1.568,2.305-1.568"/>
				<path style="fill:none;stroke:#DE5831;stroke-linecap:round;stroke-linejoin:round;stroke-miterlimit:10;" d="M499.517,459.609
					c0,0,1.396,2.709,1.545,2.494c0.148-0.216,2.413-1.395,2.413-1.395"/>
				<path style="fill:none;stroke:#DE5831;stroke-linecap:round;stroke-linejoin:round;stroke-miterlimit:10;" d="M500.587,457.038
					c0,0,1.112,2.838,1.281,2.639c0.169-0.199,2.544-1.141,2.544-1.141"/>
				<polyline style="fill:none;stroke:#DE5831;stroke-linecap:round;stroke-linejoin:round;stroke-miterlimit:10;" points="
					502.516,454.619 503.021,457.146 505.962,456.687 				"/>
				<polyline style="fill:none;stroke:#DE5831;stroke-linecap:round;stroke-linejoin:round;stroke-miterlimit:10;" points="
					504.216,451.908 504.721,454.435 507.662,453.976 				"/>
				<polyline style="fill:none;stroke:#DE5831;stroke-linecap:round;stroke-linejoin:round;stroke-miterlimit:10;" points="
					506.69,448.942 506.711,451.519 509.686,451.62 				"/>
				<polyline style="fill:none;stroke:#DE5831;stroke-linecap:round;stroke-linejoin:round;stroke-miterlimit:10;" points="
					509.676,446.874 509.698,449.451 512.672,449.553 				"/>
				<polyline style="fill:none;stroke:#DE5831;stroke-linecap:round;stroke-linejoin:round;stroke-miterlimit:10;" points="
					513.006,444.914 512.511,447.444 515.405,448.139 				"/>
				<polyline style="fill:none;stroke:#DE5831;stroke-linecap:round;stroke-linejoin:round;stroke-miterlimit:10;" points="
					516.085,443.628 515.589,446.157 518.483,446.853 				"/>
				<g>
					<path style="fill:none;stroke:#343743;stroke-miterlimit:10;" d="M479.547,465.304c4.475-2.148,10.644-5.85,13.717-10.998
						c4.221-7.071,3.804-13.473,3.081-16.902"/>
					<path style="fill:none;stroke:#DE5831;stroke-linecap:round;stroke-linejoin:round;stroke-miterlimit:10;" d="M483.371,465.7
						c0,0-2.739-0.917-2.565-1.112c0.174-0.195,0.452-2.647,0.452-2.647"/>
					<path style="fill:none;stroke:#DE5831;stroke-linecap:round;stroke-linejoin:round;stroke-miterlimit:10;" d="M485.402,464.333
						c0,0-2.77-0.819-2.603-1.02c0.167-0.202,0.358-2.662,0.358-2.662"/>
					<path style="fill:none;stroke:#DE5831;stroke-linecap:round;stroke-linejoin:round;stroke-miterlimit:10;" d="M487.994,462.781
						c0,0-2.857-0.421-2.721-0.644c0.137-0.223-0.02-2.685-0.02-2.685"/>
					<path style="fill:none;stroke:#DE5831;stroke-linecap:round;stroke-linejoin:round;stroke-miterlimit:10;" d="M490.103,460.893
						c0,0-3.043-0.173-2.906-0.397c0.137-0.223,0.293-2.772,0.293-2.772"/>
					<path style="fill:none;stroke:#DE5831;stroke-linecap:round;stroke-linejoin:round;stroke-miterlimit:10;" d="M492.327,458.979
						c0,0-3.047,0.05-2.927-0.183c0.12-0.232,0.089-2.786,0.089-2.786"/>
					<path style="fill:none;stroke:#DE5831;stroke-linecap:round;stroke-linejoin:round;stroke-miterlimit:10;" d="M494.088,456.821
						c0,0-3.026,0.361-2.931,0.118c0.096-0.243-0.197-2.781-0.197-2.781"/>
					<polyline style="fill:none;stroke:#DE5831;stroke-linecap:round;stroke-linejoin:round;stroke-miterlimit:10;" points="
						495.308,453.978 492.842,454.727 491.857,451.919 					"/>
					<polyline style="fill:none;stroke:#DE5831;stroke-linecap:round;stroke-linejoin:round;stroke-miterlimit:10;" points="
						496.893,451.199 494.427,451.948 493.442,449.139 					"/>
					<polyline style="fill:none;stroke:#DE5831;stroke-linecap:round;stroke-linejoin:round;stroke-miterlimit:10;" points="
						498.338,447.617 496.057,448.816 494.562,446.242 					"/>
					<polyline style="fill:none;stroke:#DE5831;stroke-linecap:round;stroke-linejoin:round;stroke-miterlimit:10;" points="
						498.749,444.008 496.468,445.207 494.972,442.633 					"/>
					<polyline style="fill:none;stroke:#DE5831;stroke-linecap:round;stroke-linejoin:round;stroke-miterlimit:10;" points="
						498.902,440.147 496.908,441.779 494.927,439.557 					"/>
				</g>
			</g>
			<path style="fill:none;stroke:#343743;stroke-width:0.75;stroke-miterlimit:10;" d="M513.641,476.887
				c-1.006,0.522-2.057,0.883-3.138,1.055"/>
			<path style="fill:none;stroke:#343743;stroke-width:0.75;stroke-miterlimit:10;" d="M480.366,451.681
				c0,0,10.647-23.808,32.275-12.665c15.125,7.793,12.618,26.977,4.539,35.199"/>
		</g>
	</g>
	<g>
		<path style="fill:#FFFFFF;" d="M18.37,108.762c0,0-3.507-3.099-2.936-3.752c0.571-0.652,4.568-1.223,4.568-1.223
			s2.284-4.568,3.181-4.078s1.876,3.915,1.876,3.915s4.894,0.489,4.731,1.468c-0.163,0.979-3.018,3.67-3.018,3.67
			s0.897,4.894,0,5.139c-0.897,0.245-3.915-2.202-3.915-2.202s-4.405,2.284-4.976,1.631C17.31,112.677,18.37,108.762,18.37,108.762z
			"/>
		<path style="fill:#FFFFFF;" d="M294.855,14.815c0,0-1.752-1.548-1.467-1.874c0.285-0.326,2.282-0.611,2.282-0.611
			s1.141-2.282,1.589-2.037c0.448,0.245,0.937,1.956,0.937,1.956s2.445,0.245,2.363,0.733c-0.082,0.489-1.508,1.833-1.508,1.833
			s0.448,2.445,0,2.567c-0.448,0.122-1.956-1.1-1.956-1.1s-2.2,1.141-2.486,0.815C294.326,16.771,294.855,14.815,294.855,14.815z"/>
		<path style="fill:#FFFFFF;" d="M165.282,61.613c0,0-2.998-0.971-2.82-1.528c0.177-0.556,2.491-1.982,2.491-1.982
			s0.183-3.433,0.868-3.372c0.685,0.061,2.21,1.913,2.21,1.913s3.153-1.012,3.315-0.364c0.162,0.648-0.877,3.076-0.877,3.076
			s1.868,2.78,1.38,3.172c-0.488,0.392-3.008-0.308-3.008-0.308s-2.106,2.593-2.633,2.343
			C165.679,64.315,165.282,61.613,165.282,61.613z"/>
		<path style="fill:#FFFFFF;" d="M558.055,480.542c0,0-3.507-3.1-2.936-3.752c0.571-0.652,4.568-1.223,4.568-1.223
			s2.284-4.568,3.181-4.078c0.897,0.489,1.876,3.915,1.876,3.915s4.894,0.489,4.731,1.468c-0.163,0.979-3.018,3.671-3.018,3.671
			s0.897,4.894,0,5.139c-0.897,0.245-3.915-2.202-3.915-2.202s-4.404,2.284-4.975,1.631
			C556.994,484.457,558.055,480.542,558.055,480.542z"/>
		<path style="fill:#FFFFFF;" d="M726.339,199.259c0,0-4.653-0.509-4.563-1.371c0.09-0.862,3.026-3.634,3.026-3.634
			s-0.769-5.049,0.246-5.166c1.015-0.118,3.791,2.116,3.791,2.116s4.28-2.423,4.711-1.529c0.431,0.894-0.348,4.739-0.348,4.739
			s3.556,3.48,2.964,4.198c-0.592,0.717-4.468,0.459-4.468,0.459s-2.281,4.406-3.124,4.202
			C727.731,203.069,726.339,199.259,726.339,199.259z"/>
		<path style="fill:#EEC141;" d="M22.555,379.711c0,0-6.16-2.11-5.775-3.253c0.385-1.143,5.215-4.01,5.215-4.01
			s0.496-7.087,1.91-6.938c1.414,0.15,4.5,4.029,4.5,4.029s6.549-1.983,6.862-0.639c0.313,1.345-1.918,6.326-1.918,6.326
			s3.765,5.809,2.743,6.602c-1.022,0.793-6.205-0.74-6.205-0.74s-4.44,5.285-5.522,4.751
			C23.282,385.307,22.555,379.711,22.555,379.711z"/>
		<path style="fill:#EEC141;" d="M312.093,57.965c0,0-6.16-2.11-5.775-3.253c0.385-1.143,5.215-4.01,5.215-4.01
			s0.496-7.087,1.91-6.937c1.414,0.15,4.5,4.029,4.5,4.029s6.549-1.983,6.862-0.639c0.313,1.345-1.918,6.326-1.918,6.326
			s3.765,5.809,2.743,6.602c-1.022,0.793-6.206-0.74-6.206-0.74s-4.44,5.285-5.522,4.751
			C312.82,63.561,312.093,57.965,312.093,57.965z"/>
		<path style="fill:#EEC141;" d="M575.331,36.96c0,0-3.527-3.478-2.886-4.135c0.641-0.656,4.898-1.028,4.898-1.028
			s2.678-4.695,3.598-4.125c0.92,0.569,1.756,4.246,1.756,4.246s5.143,0.8,4.914,1.825c-0.229,1.025-3.402,3.704-3.402,3.704
			s0.665,5.223-0.297,5.43c-0.962,0.207-4.01-2.554-4.01-2.554s-4.787,2.158-5.352,1.436
			C573.984,41.036,575.331,36.96,575.331,36.96z"/>
		<path style="fill:#EEC141;" d="M577.064,335.773c0,0-4.206-1.635-4.046-2.475c0.16-0.84,3.091-2.9,3.091-2.9
			s-0.25-5.232,0.688-5.104c0.938,0.128,3.274,3.032,3.274,3.032s4.128-1.386,4.442-0.389c0.314,0.998-0.743,4.653-0.743,4.653
			s2.937,4.339,2.332,4.913c-0.605,0.574-4.125-0.622-4.125-0.622s-2.479,3.852-3.231,3.445
			C577.994,339.918,577.064,335.773,577.064,335.773z"/>
		<path style="fill:#EEC141;" d="M444.406,440.965c0,0-4.721-4.485-3.894-5.364c0.827-0.879,6.412-1.472,6.412-1.472
			s3.404-6.236,4.627-5.511s2.412,5.537,2.412,5.537s6.78,0.926,6.504,2.278c-0.276,1.353-4.38,4.952-4.38,4.952
			s1.002,6.849-0.258,7.144c-1.26,0.295-5.333-3.258-5.333-3.258s-6.238,2.954-6.999,2.019
			C442.735,446.355,444.406,440.965,444.406,440.965z"/>
		<path style="fill:#EEC141;" d="M288.231,485.784c0,0-3.901-1.98-3.538-2.704c0.363-0.724,3.845-2.18,3.845-2.18
			s0.993-4.669,1.92-4.437c0.927,0.232,2.617,3.101,2.617,3.101s4.542-0.707,4.625,0.217c0.082,0.924-1.868,4.029-1.868,4.029
			s1.961,4.217,1.207,4.649c-0.754,0.432-4.059-1.073-4.059-1.073s-3.448,3.101-4.118,2.644S288.231,485.784,288.231,485.784z"/>
		<path style="fill:#EEC141;" d="M138.571,160.725c0,0-3.901-1.98-3.538-2.705c0.363-0.724,3.845-2.18,3.845-2.18
			s0.993-4.669,1.92-4.437c0.927,0.232,2.617,3.101,2.617,3.101s4.542-0.707,4.625,0.217c0.082,0.924-1.868,4.029-1.868,4.029
			s1.961,4.217,1.207,4.649c-0.754,0.432-4.059-1.073-4.059-1.073s-3.448,3.101-4.118,2.644
			C138.531,164.516,138.571,160.725,138.571,160.725z"/>
		<path style="fill:#EEC141;" d="M678.231,388.862c0,0-3.901-1.98-3.538-2.705c0.363-0.724,3.845-2.18,3.845-2.18
			s0.993-4.669,1.92-4.437s2.617,3.101,2.617,3.101s4.542-0.707,4.625,0.217c0.082,0.924-1.868,4.029-1.868,4.029
			s1.961,4.216,1.207,4.649c-0.754,0.432-4.059-1.073-4.059-1.073s-3.448,3.101-4.118,2.644
			C678.191,392.653,678.231,388.862,678.231,388.862z"/>
	</g>
</g>
</svg>
