<?xml version="1.0" encoding="utf-8"?>
<!-- Generator: Adobe Illustrator 27.5.0, SVG Export Plug-In . SVG Version: 6.00 Build 0)  -->
<svg version="1.1" xmlns="http://www.w3.org/2000/svg" xmlns:xlink="http://www.w3.org/1999/xlink" x="0px" y="0px"
	 viewBox="0 0 750 500" style="enable-background:new 0 0 750 500;" xml:space="preserve">
<g id="BACKGROUND">
	<g>
		<g>
			<rect style="fill:#2E4050;" width="750" height="500"/>
		</g>
		<path style="opacity:0.42;fill:#2E2F38;" d="M379.889,298.87c-71.122-15.852-100.604,21.93-172.673-22.915
			C128.317,226.861,134.636,99.743,0,174.057V500h476.737C476.737,500,533.015,332.999,379.889,298.87z"/>
		<path style="opacity:0.42;fill:#2E2F38;" d="M494.689,62.697c11.079,15.014,30.184,18.591,47.719,19.395
			c8.522,0.391,17.093-0.133,25.56,1.102c7.139,1.041,14.137,3.181,20.428,6.753c11.197,6.358,18.959,16.822,24.651,28.146
			c6.246,12.425,10.434,25.758,15.424,38.705c5.197,13.483,11.28,27.649,21.199,38.41c14.684,15.93,36.133,23.391,56.821,27.678
			c14.45,2.995,29.053,3.599,43.51,2.139V0H488.723C482.615,20.613,481.462,44.773,494.689,62.697z"/>
		
			<ellipse transform="matrix(0.6307 -0.776 0.776 0.6307 -81.5843 264.2514)" style="opacity:0.42;fill:#2E2F38;" cx="236.85" cy="217.844" rx="33.029" ry="63.074"/>
		
			<ellipse transform="matrix(0.6307 -0.776 0.776 0.6307 101.5866 481.3186)" style="opacity:0.42;fill:#2E2F38;" cx="556.502" cy="133.925" rx="24.266" ry="46.34"/>
		<ellipse style="opacity:0.42;fill:#2E2F38;" cx="340.647" cy="253.15" rx="26.768" ry="18.613"/>
		
			<ellipse transform="matrix(0.8564 -0.5162 0.5162 0.8564 -61.9399 188.7593)" style="opacity:0.42;fill:#2E2F38;" cx="308.43" cy="205.751" rx="10.575" ry="15.208"/>
		
			<ellipse transform="matrix(0.8564 -0.5162 0.5162 0.8564 -5.9936 344.9097)" style="opacity:0.42;fill:#2E2F38;" cx="617.17" cy="183.232" rx="10.575" ry="15.208"/>
	</g>
</g>
<g id="OBJECTS">
	<g>
		<defs>
			<rect id="SVGID_1_" width="750" height="500"/>
		</defs>
		<clipPath id="SVGID_00000033334712781089415460000002271485293375134646_">
			<use xlink:href="#SVGID_1_"  style="overflow:visible;"/>
		</clipPath>
		<g style="clip-path:url(#SVGID_00000033334712781089415460000002271485293375134646_);">
			<g>
				<g>
					<path style="fill:#C83A3E;" d="M332.637,470.916c-3.673-16.009-19.706-37.495-34.288-45.491
						c-14.802-8.117-37.645-6.322-52.365,0.315c-8.726,3.934-15.381,8.162-22.127,15.454c-6.519,7.047-10.451,11.47-20.496,12.246
						c-8.064,0.623-16.728,1.808-24.442-1.411c-8.962-3.739-13.217-11.536-19.29-18.161c-11.142-12.153-28.924-13.566-41.078-2.529
						c-15.467,14.046-15.084,38.178-8.595,56.181c26.996,74.906,107.753,64.748,129.309,60.647
						c25.183-4.792,49.953-7.998,70.13-25.365C326.024,508.488,337.853,493.644,332.637,470.916z"/>
				</g>
				<g>
					<path style="fill:#C83A3E;" d="M360.794,430.951c-4.215-16.941-45.266-59.889-61.828-33.21
						c-4.87,7.844,2.767,12.91,8.553,17.384c14.428,11.157,23.474,26.328,28.889,43.842c3.122,10.098,8.533,41.989,20.677,19.139
						C365.675,461.943,365.046,448.038,360.794,430.951z"/>
				</g>
				<g>
					<path style="fill:#C83A3E;" d="M346.792,499.276c-8.229-4.454-46.023,36.083-22.051,37.372
						c9.181,0.494,17.549-9.35,21.261-16.691C350.039,511.975,355.021,503.73,346.792,499.276z"/>
				</g>
				<g>
					<path style="fill:#FFFFFF;" d="M366.599,481.79c-3.109-2.217-13.874,13.766-5.668,19.902
						C369.137,507.828,369.707,484.007,366.599,481.79z"/>
				</g>
			</g>
			<g>
				<g>
					<path style="fill:#E09C43;" d="M151.434,331.359c-5.754,10.728-31.461,72.465,21.136,121.509
						c20.207,18.842,53.765,21.657,77.768,5.307c10.538-7.178,20.961-17.075,21.167-30.389
						c0.226-14.592-12.572-26.963-25.955-30.858c-15.839-4.608-30.669-7.295-41.459-20.719
						c-9.112-11.335-9.531-23.444-11.142-37.078c-1.584-13.404-8.789-23.347-23.373-23.411
						C160.203,315.68,155.584,323.62,151.434,331.359z"/>
				</g>
				<g>
					<g>
						<path style="fill:#FFFFFF;" d="M132.141,296.236c-7.128,16.034,9.317,38.024,21.67-5.544
							c1.737-6.124,0.701-18.802-7.907-16.196C138.972,276.595,134.768,290.328,132.141,296.236z"/>
					</g>
					
						<ellipse transform="matrix(0.6075 -0.7943 0.7943 0.6075 -159.6191 253.9588)" style="fill:#E09C43;" cx="177.155" cy="288.488" rx="16.005" ry="8.216"/>
				</g>
			</g>
			<g>
				<g>
					<path style="fill:#4993D1;" d="M155.834,461.823c7.09-25.98-4.872-42.577-21.537-61.063
						c-16.599-18.413-24.025-37.273-27.455-61.842c-3.119-22.334,4.407-42.406-12.423-60.884
						C80.067,262.276-5.295,192.56-66.043,371.253c-20.493,60.282,19.526,219.409,174.789,140.383
						C129.572,501.037,149.526,484.938,155.834,461.823z"/>
				</g>
				<g>
					<path style="fill:#FFFFFF;" d="M162.343,448.149c-45.657-22.365-15.356-58.379-75.252-100.532
						c-23.989-16.883-51.637-18.279-76.17-13.893l2.971,9.816c9.319-2.34,19.098-3.186,28.562-3.994
						c24.557-2.098,53.504,17.898,67.243,37.512c14.264,20.365,16.522,48.493,33.001,67.104c19.45,21.966,46.561,27.617,72.7,37.245
						c14.334,5.28,28.776,19.293,32.076,34.496c1.909,8.796-1.295,19.016-1.937,27.88c-0.252,3.479-0.489,7.031-0.804,10.598
						l41.388-12.529C277.225,467.12,206.896,469.973,162.343,448.149z"/>
				</g>
				<g>
					<path style="fill:#E09C43;" d="M100.407,360.172c-0.885,6.02-3.084,10.693-6.346,15.789
						c-12.232,19.118-5.917,53.519,25.092,12.968c7.351-9.613,8.459-24.082,9.525-35.863c1.039-11.481,5.578-33.658-14.008-22.805
						C103.066,336.692,102.128,348.465,100.407,360.172z"/>
				</g>
				
					<ellipse transform="matrix(0.6075 -0.7943 0.7943 0.6075 -205.0269 202.0369)" style="fill:#E09C43;" cx="101.915" cy="308.472" rx="16.005" ry="8.216"/>
				
					<ellipse transform="matrix(0.5947 -0.804 0.804 0.5947 -221.8046 342.516)" style="fill:#4993D1;" cx="228.795" cy="391.237" rx="25.479" ry="34.855"/>
				<path style="fill:#4993D1;" d="M269.167,368.839c-3.76,5.083-9.263-0.584-17.636-6.777c-8.372-6.193-16.443-10.568-12.683-15.65
					s13.595-4.183,21.967,2.011C269.187,354.615,272.927,363.756,269.167,368.839z"/>
				<path style="fill:#C83A3E;" d="M403.368,467.847c1.604,14.62-6.693,27.525-18.533,28.824c-11.84,1.299-4.175-7.05-5.779-21.67
					c-1.604-14.62-11.871-29.974-0.031-31.273C390.865,442.428,401.764,453.227,403.368,467.847z"/>
			</g>
		</g>
		<g style="clip-path:url(#SVGID_00000033334712781089415460000002271485293375134646_);">
			<g>
				<g>
					<path style="fill:#C83A3E;" d="M836.256,102.434c3.678-14.166-0.162-37.744-8.402-50.062
						c-8.365-12.503-27.161-20.476-41.527-21.281c-8.516-0.477-15.516,0.128-23.846,3.12c-8.051,2.891-12.978,4.771-21.238,1.254
						c-6.631-2.824-13.968-5.449-18.743-11.165c-5.547-6.641-5.706-14.555-7.783-22.289c-3.811-14.189-17.288-22.617-31.435-18.889
						c-18.003,4.744-27.622,23.98-29.895,40.88c-9.456,70.317,58.564,95.492,77.291,101.112
						c21.878,6.566,42.779,14.216,65.871,8.782C815.579,129.417,831.034,122.547,836.256,102.434z"/>
				</g>
				<g>
					<path style="fill:#E09C43;" d="M692.086,157.838c12.094,9.785,64.348,18.287,61.801-9.579
						c-0.749-8.193-8.899-7.695-15.416-7.771c-16.251-0.188-30.83-6.12-44.085-15.667c-7.642-5.505-28.613-25.279-24.981-2.509
						C671.974,138.418,679.888,147.969,692.086,157.838z"/>
				</g>
			</g>
			<g>
				<g>
					<path style="fill:#E09C43;" d="M750.384-82.398c-8.96,6.116-54.667,44.352-33.251,104.751
						c8.228,23.205,33.6,39.228,59.298,36.171c11.282-1.342,23.591-4.881,29.229-15.321c6.179-11.443,1.148-26.485-7.832-35.067
						C787.202-2.02,776.583-10.241,773.572-25.29c-2.543-12.708,2.104-22.453,6.437-33.894c4.259-11.247,2.651-22.071-8.852-28.118
						C763.764-91.188,756.848-86.81,750.384-82.398z"/>
				</g>
			</g>
			<g>
				<g>
					<path style="fill:#4993D1;" d="M700.221,22.551c16.287-17.623,13.655-35.663,8.081-57.129
						c-5.552-21.382-3.667-39.345,3.722-60.179c6.717-18.939,20.92-31.713,15.212-53.24c-4.867-18.359-43.687-108.571-165.183,7.719
						c-40.987,39.231-74.776,181.484,80.461,182.848C663.336,42.753,685.73,38.231,700.221,22.551z"/>
				</g>
				<g>
					<path style="fill:#FFFFFF;" d="M680.001,34.854c37.718,25.094,6.741,53.366,54.725,97.606
						c19.218,17.719,43.479,22.184,65.663,21.177l-1.478-9.018c-8.506,0.978-17.244,0.582-25.699,0.19
						c-21.939-1.017-45.173-22.066-55.016-40.998c-10.22-19.657-8.926-44.769-21.309-63.137
						c-14.614-21.678-37.903-29.839-59.868-41.4c-12.046-6.34-23.165-20.407-24.303-34.223c-0.659-7.994,3.367-16.647,4.97-24.402
						c0.629-3.044,1.254-6.154,1.949-9.268l-38.026,6.23C580.733,4.666,643.195,10.367,680.001,34.854z"/>
				</g>
				<g>
					<path style="fill:#FFFFFF;" d="M635.515,56.136c-5.351,0.876-9.913,0.273-15.122-1.118c-19.54-5.216-47.041,9.449-4.225,24.812
						c10.15,3.642,22.734,0.67,33.026-1.611c10.029-2.223,30.087-4.366,15.574-18.061C656.17,52.044,645.92,54.431,635.515,56.136z"
						/>
				</g>
			</g>
		</g>
	</g>
</g>
</svg>
